<?xml version="1.0" encoding="utf-8"?>
<!-- Generator: Adobe Illustrator 20.1.0, SVG Export Plug-In . SVG Version: 6.00 Build 0)  -->
<svg version="1.1" id="Layer_1" xmlns="http://www.w3.org/2000/svg" xmlns:xlink="http://www.w3.org/1999/xlink" x="0px" y="0px"
	 viewBox="0 0 12.8 12.8" style="enable-background:new 0 0 12.8 12.8;" xml:space="preserve">
<style type="text/css">
	.st0{fill:#CCCCCC;}
</style>
<title>17123_linkedin</title>
<g id="Layer_2">
	<g id="Layer_1-2">
		<path class="st0" d="M6.4,0C2.9,0,0,2.9,0,6.4s2.9,6.4,6.4,6.4s6.4-2.9,6.4-6.4l0,0C12.8,2.9,9.9,0,6.4,0 M4.8,9.5H3.2V3.9h1.6
			V9.5z M4,3.6c-0.4,0-0.7-0.4-0.7-0.8S3.7,2,4.1,2.1c0.4,0,0.7,0.3,0.7,0.7C4.8,3.2,4.5,3.6,4,3.6C4,3.6,4,3.6,4,3.6 M10.4,9.5H8.8
			V6c0-0.4-0.1-0.7-0.6-0.7c-0.4,0-0.9,0.3-1,0.7v3.5H5.6V3.9h1.6v0.5c0.5-0.3,1-0.5,1.6-0.5c0.5,0,1.6,0.3,1.6,2.2L10.4,9.5z"/>
	</g>
</g>
</svg>
