<?xml version="1.0" encoding="utf-8"?>
<!-- Generator: Adobe Illustrator 20.1.0, SVG Export Plug-In . SVG Version: 6.00 Build 0)  -->
<svg version="1.1" id="Layer_1" xmlns="http://www.w3.org/2000/svg" xmlns:xlink="http://www.w3.org/1999/xlink" x="0px" y="0px"
	 viewBox="0 0 39.7 39.7" style="enable-background:new 0 0 39.7 39.7;" xml:space="preserve">
<style type="text/css">
	.st0{fill:#CCCCCC;}
</style>
<title>instagram</title>
<g id="Layer_2">
	<g id="Layer_1-2">
		<path class="st0" d="M28.8,13.1c-0.4-1-1.2-1.8-2.2-2.2c-0.7-0.3-1.4-0.4-2.1-0.4c-1.2-0.1-1.6-0.1-4.6-0.1s-3.4,0-4.6,0.1
			c-0.7,0-1.4,0.1-2.1,0.4c-1,0.4-1.8,1.2-2.2,2.2c-0.2,0.7-0.4,1.4-0.4,2.1c-0.1,1.2-0.1,1.6-0.1,4.6s0,3.4,0.1,4.6
			c0,0.7,0.1,1.4,0.4,2.1c0.4,1,1.2,1.8,2.2,2.2c0.7,0.3,1.4,0.4,2.1,0.4c1.2,0,1.6,0.1,4.6,0.1s3.4,0,4.6-0.1
			c0.7,0,1.4-0.1,2.1-0.4c1-0.4,1.8-1.2,2.2-2.2c0.2-0.7,0.4-1.4,0.4-2.1c0.1-1.2,0.1-1.6,0.1-4.6s0-3.4-0.1-4.6
			C29.2,14.5,29.1,13.8,28.8,13.1 M20,25.6c-3.2,0-5.8-2.6-5.8-5.8s2.6-5.8,5.8-5.8s5.8,2.6,5.8,5.8l0,0C25.8,23,23.2,25.6,20,25.6
			 M26,15.1c-0.8,0-1.4-0.6-1.4-1.4c0-0.8,0.6-1.4,1.4-1.4c0.8,0,1.4,0.6,1.4,1.4C27.4,14.5,26.7,15.1,26,15.1 M20,16
			c-2.1,0-3.8,1.7-3.8,3.8s1.7,3.8,3.8,3.8c2.1,0,3.8-1.7,3.8-3.8S22.1,16,20,16L20,16 M19.9,0C8.9,0,0,8.9,0,19.9
			s8.9,19.9,19.9,19.9s19.9-8.9,19.9-19.9C39.7,8.9,30.8,0,19.9,0 M31.3,24.5c0,0.9-0.2,1.9-0.5,2.8c-0.6,1.5-1.8,2.7-3.3,3.3
			c-0.9,0.3-1.8,0.5-2.8,0.5c-1.2,0.1-1.6,0.1-4.7,0.1s-3.5,0-4.7-0.1c-0.9,0-1.9-0.2-2.8-0.5C11,30,9.8,28.8,9.2,27.2
			c-0.3-0.9-0.5-1.8-0.5-2.8c-0.1-1.2-0.1-1.6-0.1-4.7s0-3.5,0.1-4.7c0-0.9,0.2-1.9,0.5-2.8C9.8,10.8,11,9.6,12.5,9
			c0.9-0.3,1.8-0.5,2.8-0.5c1.2-0.1,1.6-0.1,4.7-0.1s3.5,0,4.7,0.1c0.9,0,1.9,0.2,2.7,0.5c1.5,0.6,2.7,1.8,3.3,3.3
			c0.3,0.9,0.5,1.8,0.5,2.8c0.1,1.2,0.1,1.6,0.1,4.7S31.3,23.2,31.3,24.5"/>
	</g>
</g>
</svg>
