<?xml version="1.0" encoding="utf-8"?>
<!-- Generator: Adobe Illustrator 20.1.0, SVG Export Plug-In . SVG Version: 6.00 Build 0)  -->
<svg version="1.1" id="Layer_1" xmlns="http://www.w3.org/2000/svg" xmlns:xlink="http://www.w3.org/1999/xlink" x="0px" y="0px"
	 viewBox="0 0 78.2 78.2" style="enable-background:new 0 0 78.2 78.2;" xml:space="preserve">
<style type="text/css">
	.st0{fill:#CCCCCC;}
</style>
<title>17123_youtube</title>
<g id="Layer_2">
	<g id="Layer_1-2">
		<polygon class="st0" points="20.5,42 23.6,42 23.6,58.8 26.6,58.8 26.6,42 29.7,42 29.7,39.2 20.5,39.2 		"/>
		<path class="st0" d="M45.3,44c-1.1,0.1-2.1,0.7-2.7,1.6v-6.3H40v19.5h2.6v-1.4c0.6,0.9,1.6,1.5,2.7,1.6c1,0,1.9-0.7,2.1-1.6
			c0.2-1,0.3-1.9,0.3-2.9v-5.8c0-1-0.1-2-0.3-2.9C47.2,44.7,46.4,44,45.3,44 M45.1,54.6c0,1.3-0.4,2-1.2,2c-0.5,0-1-0.3-1.3-0.7V47
			c0.3-0.4,0.8-0.6,1.3-0.6c0.8,0,1.2,0.7,1.2,2V54.6z"/>
		<path class="st0" d="M35.1,55.3c-0.6,0.8-1.1,1.2-1.7,1.2c-0.3,0-0.5-0.2-0.6-0.6c0-0.3,0-0.7,0-1V44.2h-2.7v11.5
			c0,0.7,0.1,1.5,0.2,2.2c0.2,0.7,0.9,1.2,1.6,1.1c1.2-0.1,2.3-0.8,3-1.8v1.6h2.7V44.2h-2.6V55.3z"/>
		<path class="st0" d="M37.3,30.8c0.9,0,1.3-0.7,1.3-2v-6.2c0-1.4-0.4-2-1.3-2s-1.3,0.7-1.3,2v6.2C36,30.1,36.5,30.7,37.3,30.8"/>
		<path class="st0" d="M39.1,0C17.5,0,0,17.5,0,39.1s17.5,39.1,39.1,39.1s39.1-17.5,39.1-39.1l0,0C78.2,17.5,60.7,0,39.1,0
			 M43.4,18.3h2.7v10.8c0,0.3,0,0.7,0,1c0.1,0.4,0.3,0.6,0.6,0.6c0.5,0,1.1-0.4,1.7-1.2V18.3h2.7V33h-2.6v-1.6c-0.7,1-1.8,1.7-3,1.8
			c-0.8,0.1-1.5-0.4-1.7-1.1c-0.2-0.7-0.3-1.5-0.2-2.2L43.4,18.3z M33.4,23.1c-0.1-1.2,0.2-2.4,0.8-3.5c1.4-1.7,3.9-2,5.6-0.6
			c0.2,0.2,0.4,0.4,0.6,0.6c0.6,1,0.9,2.3,0.8,3.5v5.1c0.1,1.2-0.2,2.4-0.8,3.5c-1.4,1.7-3.9,2-5.6,0.6c-0.2-0.2-0.4-0.4-0.6-0.6
			c-0.6-1-0.9-2.2-0.8-3.5V23.1z M26.3,13.3l2.1,7.7l2-7.8h3L29.8,25v8h-3v-8c-0.5-2.1-1.1-4.2-1.8-6.2c-0.6-1.8-1.3-3.7-1.9-5.5
			H26.3z M60.2,60c-0.5,2.3-2.4,4-4.7,4.3C50,64.8,44.6,65,39.1,64.9c-5.5,0.1-10.9-0.1-16.3-0.6c-2.3-0.3-4.3-2-4.8-4.3
			c-0.6-3.4-0.9-6.9-0.8-10.3c-0.1-3.5,0.1-6.9,0.8-10.3c0.5-2.3,2.4-4,4.7-4.3c5.4-0.5,10.9-0.7,16.3-0.6
			c5.5-0.1,10.9,0.1,16.3,0.6c2.3,0.3,4.2,2,4.7,4.3c0.6,3.4,0.9,6.9,0.8,10.3C61,53.1,60.8,56.6,60.2,60"/>
		<path class="st0" d="M53.7,44c-1.2-0.1-2.4,0.5-3.2,1.5c-0.6,1.1-0.9,2.3-0.8,3.5v5.1c-0.1,1.2,0.2,2.4,0.8,3.4
			c0.8,1,2,1.5,3.2,1.5c1.3,0.1,2.5-0.5,3.2-1.6c0.3-0.5,0.5-1,0.6-1.6c0-0.3,0.1-0.8,0.1-1.7v-0.4H55c0,0.6,0,1.2-0.1,1.8
			c0,0.6-0.6,1.1-1.2,1.1c-0.9,0-1.3-0.7-1.3-2V52h5.3v-3c0.1-1.2-0.2-2.4-0.8-3.4C56.2,44.5,55,44,53.7,44 M55,49.8h-2.6v-1.3
			c0-1.3,0.4-2,1.3-2c0.9,0,1.3,0.7,1.3,2L55,49.8z"/>
	</g>
</g>
</svg>
