<?xml version="1.0" encoding="utf-8"?>
<!-- Generator: Adobe Illustrator 20.1.0, SVG Export Plug-In . SVG Version: 6.00 Build 0)  -->
<svg version="1.1" id="Layer_1" xmlns="http://www.w3.org/2000/svg" xmlns:xlink="http://www.w3.org/1999/xlink" x="0px" y="0px"
	 viewBox="0 0 12.8 12.8" style="enable-background:new 0 0 12.8 12.8;" xml:space="preserve">
<style type="text/css">
	.st0{fill:#CCCCCC;}
</style>
<title>17123_twitter</title>
<g id="Layer_2">
	<g id="Layer_1-2">
		<path class="st0" d="M6.4,0C2.9,0,0,2.9,0,6.4s2.9,6.4,6.4,6.4s6.4-2.9,6.4-6.4l0,0C12.8,2.9,9.9,0,6.4,0 M9.6,5v0.2
			c0,2.5-2,4.5-4.5,4.5C4.3,9.7,3.4,9.4,2.7,9h0.4c0.7,0,1.4-0.2,2-0.7c-0.7,0-1.3-0.4-1.5-1.1c0.1,0,0.2,0,0.3,0
			c0.1,0,0.3,0,0.4-0.1C3.5,7,3,6.4,3,5.6l0,0c0.2,0.1,0.5,0.2,0.7,0.2C3.3,5.5,3,5,3,4.5c0-0.3,0.1-0.6,0.2-0.8
			c0.8,1,2,1.6,3.3,1.6c0-0.1,0-0.2,0-0.4c0-0.9,0.8-1.6,1.6-1.5c0.4,0,0.8,0.2,1.1,0.5c0.4-0.1,0.7-0.2,1-0.4
			C10,3.9,9.8,4.2,9.5,4.4c0.3,0,0.6-0.1,0.9-0.2C10.2,4.5,9.9,4.8,9.6,5"/>
	</g>
</g>
</svg>
