<svg xmlns="http://www.w3.org/2000/svg" viewBox="0 0 167.21 34.82"><title>17123_B_logo</title><g id="Layer_2" data-name="Layer 2"><g id="Layer_1-2" data-name="Layer 1"><path d="M4.32,34.82S-5.5,19.48,4.47,0c0,0,19.54.23,29.81,17.41,0,0-9.4,17-30,17.41M8,3.82C1.72,17.52,13.22,25.7,13.22,25.7A21.48,21.48,0,0,1,6,30.09l.16.47s15.54-3.53,17-16.31a15.24,15.24,0,0,1,6.2,4.12l.22-.29C21.27,6.4,8,11.45,8,11.45a19.56,19.56,0,0,1,.54-7.59Z" style="fill:#231f20"/><path d="M51.41,10.75H46.35a.66.66,0,0,0-.66.66V25.36a.66.66,0,0,0,.66.66h1a.66.66,0,0,0,.66-.66V20.82h3.1c3.65,0,6.1-2.05,6.1-5.15S55,10.75,51.41,10.75M48,13h3.28c1.07,0,3.56.26,3.56,2.74,0,1.68-1.44,2.76-3.68,2.76H48Z" style="fill:#231f20"/><path d="M72.87,19.84a4.48,4.48,0,0,0,3.57-4.46,4.35,4.35,0,0,0-1.25-3.06,6.12,6.12,0,0,0-4.39-1.57H64.94a.67.67,0,0,0-.67.66V25.36a.67.67,0,0,0,.67.66h1a.66.66,0,0,0,.66-.66V20.25h3.57l4.24,5.52A.66.66,0,0,0,75,26h1.32A.67.67,0,0,0,76.82,25ZM66.64,13h4.1c1,0,3.34.23,3.34,2.42,0,1.86-1.83,2.52-3.4,2.52h-4Z" style="fill:#231f20"/><path d="M94.64,23.74H86.32V19.47h7.32a.67.67,0,0,0,.66-.66v-1a.66.66,0,0,0-.66-.66H86.32V13h8.22a.67.67,0,0,0,.66-.67v-1a.67.67,0,0,0-.66-.67H84.62a.66.66,0,0,0-.66.67V25.36a.66.66,0,0,0,.66.66h10a.67.67,0,0,0,.66-.66v-1a.67.67,0,0,0-.66-.67" style="fill:#231f20"/><path d="M116.4,10.75h-1a.66.66,0,0,0-.55.29l-5,7.44-5-7.44a.67.67,0,0,0-.55-.29h-1a.67.67,0,0,0-.67.66V25.36a.67.67,0,0,0,.67.66h1a.66.66,0,0,0,.66-.66v-10l4.31,6.27a.77.77,0,0,0,1.17,0l4.31-6.27v10a.66.66,0,0,0,.66.66h1a.67.67,0,0,0,.66-.66V11.41a.67.67,0,0,0-.66-.66" style="fill:#231f20"/><path d="M127,10.75h-1a.67.67,0,0,0-.67.66V25.36A.67.67,0,0,0,126,26h1a.67.67,0,0,0,.66-.66V11.41a.67.67,0,0,0-.66-.66" style="fill:#231f20"/><path d="M146.58,23.74h-8.32V19.47h7.32a.67.67,0,0,0,.66-.66v-1a.66.66,0,0,0-.66-.66h-7.32V13h8.22a.67.67,0,0,0,.66-.67v-1a.66.66,0,0,0-.66-.67h-9.92a.67.67,0,0,0-.67.67V25.36a.67.67,0,0,0,.67.66h10a.66.66,0,0,0,.66-.66v-1a.67.67,0,0,0-.66-.67" style="fill:#231f20"/><path d="M167.07,25l-4-5.11a4.48,4.48,0,0,0,3.57-4.46,4.35,4.35,0,0,0-1.25-3.06A6.12,6.12,0,0,0,161,10.75h-5.86a.67.67,0,0,0-.67.66V25.36a.67.67,0,0,0,.67.66h1a.67.67,0,0,0,.67-.66V20.25h3.57l4.24,5.52a.66.66,0,0,0,.53.26h1.32a.67.67,0,0,0,.53-1.07M156.89,13H161c1,0,3.34.23,3.34,2.42,0,1.86-1.83,2.52-3.4,2.52h-4Z" style="fill:#231f20"/></g></g></svg>